<?xml version="1.0" encoding="iso-8859-1"?>
<!-- Generator: Adobe Illustrator 19.0.0, SVG Export Plug-In . SVG Version: 6.00 Build 0)  -->
<svg xmlns="http://www.w3.org/2000/svg" xmlns:xlink="http://www.w3.org/1999/xlink" version="1.1" id="Layer_1" x="0px" y="0px" viewBox="0 0 512 512" style="enable-background:new 0 0 512 512;" xml:space="preserve" width="512px" height="512px">
<g transform="translate(1 1)">
	<g>
		<g>
			<path d="M485.4-1H24.6C10.093-1-1,10.093-1,24.6v460.8c0,14.507,11.093,25.6,25.6,25.6h460.8c14.507,0,25.6-11.093,25.6-25.6     V24.6C511,10.093,499.907-1,485.4-1z M493.933,485.4c0,5.12-3.413,8.533-8.533,8.533H24.6c-5.12,0-8.533-3.413-8.533-8.533V24.6     c0-5.12,3.413-8.533,8.533-8.533h460.8c5.12,0,8.533,3.413,8.533,8.533V485.4z" fill="#cccccc"/>
			<path d="M212.333,92.867h85.333c5.12,0,8.533-3.413,8.533-8.533V50.2c0-5.12-3.413-8.533-8.533-8.533h-85.333     c-5.12,0-8.533,3.413-8.533,8.533v34.133C203.8,89.453,207.213,92.867,212.333,92.867z M220.867,58.733h68.267V75.8h-68.267     V58.733z" fill="#cccccc"/>
			<path d="M41.667,75.8h51.2c4.267,0,8.533-3.413,8.533-8.533s-3.413-8.533-8.533-8.533h-51.2c-5.12,0-8.533,3.413-8.533,8.533     S36.547,75.8,41.667,75.8z" fill="#cccccc"/>
			<path d="M127,75.8h51.2c5.12,0,8.533-3.413,8.533-8.533s-3.413-8.533-8.533-8.533H127c-5.12,0-8.533,3.413-8.533,8.533     S121.88,75.8,127,75.8z" fill="#cccccc"/>
			<path d="M331.8,75.8H383c4.267,0,8.533-3.413,8.533-8.533s-3.413-8.533-8.533-8.533h-51.2c-5.12,0-8.533,3.413-8.533,8.533     S326.68,75.8,331.8,75.8z" fill="#cccccc"/>
			<path d="M468.333,58.733h-51.2c-5.12,0-8.533,3.413-8.533,8.533s3.413,8.533,8.533,8.533h51.2c5.12,0,8.533-3.413,8.533-8.533     S473.453,58.733,468.333,58.733z" fill="#cccccc"/>
			<path d="M468.333,118.467H41.667c-5.12,0-8.533,3.413-8.533,8.533v136.533c0,5.12,3.413,8.533,8.533,8.533h426.667     c5.12,0,8.533-3.413,8.533-8.533V127C476.867,121.88,473.453,118.467,468.333,118.467z M459.8,255H50.2V135.533h409.6V255z" fill="#cccccc"/>
			<path d="M50.2,314.733h59.733c5.12,0,8.533-3.413,8.533-8.533s-3.413-8.533-8.533-8.533H50.2c-5.12,0-8.533,3.413-8.533,8.533     S45.08,314.733,50.2,314.733z" fill="#cccccc"/>
			<path d="M272.067,297.667H161.133c-5.12,0-8.533,3.413-8.533,8.533s3.413,8.533,8.533,8.533h110.933     c5.12,0,8.533-3.413,8.533-8.533S277.187,297.667,272.067,297.667z" fill="#cccccc"/>
			<path d="M468.333,297.667H323.267c-5.12,0-8.533,3.413-8.533,8.533s3.413,8.533,8.533,8.533h145.067     c5.12,0,8.533-3.413,8.533-8.533S473.453,297.667,468.333,297.667z" fill="#cccccc"/>
			<path d="M50.2,365.933h110.933c5.12,0,8.533-3.413,8.533-8.533s-3.413-8.533-8.533-8.533H50.2c-5.12,0-8.533,3.413-8.533,8.533     S45.08,365.933,50.2,365.933z" fill="#cccccc"/>
			<path d="M246.467,348.867h-34.133c-5.12,0-8.533,3.413-8.533,8.533s3.413,8.533,8.533,8.533h34.133     c5.12,0,8.533-3.413,8.533-8.533S251.587,348.867,246.467,348.867z" fill="#cccccc"/>
			<path d="M50.2,417.133h59.733c5.12,0,8.533-3.413,8.533-8.533s-3.413-8.533-8.533-8.533H50.2c-5.12,0-8.533,3.413-8.533,8.533     S45.08,417.133,50.2,417.133z" fill="#cccccc"/>
			<path d="M246.467,400.067h-85.333c-5.12,0-8.533,3.413-8.533,8.533s3.413,8.533,8.533,8.533h85.333     c5.12,0,8.533-3.413,8.533-8.533S251.587,400.067,246.467,400.067z" fill="#cccccc"/>
			<path d="M161.133,451.267H50.2c-5.12,0-8.533,3.413-8.533,8.533c0,5.12,3.413,8.533,8.533,8.533h110.933     c5.12,0,8.533-3.413,8.533-8.533C169.667,454.68,166.253,451.267,161.133,451.267z" fill="#cccccc"/>
			<path d="M246.467,451.267h-34.133c-5.12,0-8.533,3.413-8.533,8.533c0,5.12,3.413,8.533,8.533,8.533h34.133     c5.12,0,8.533-3.413,8.533-8.533C255,454.68,251.587,451.267,246.467,451.267z" fill="#cccccc"/>
			<path d="M468.333,348.867H297.667c-5.12,0-8.533,3.413-8.533,8.533v102.4c0,5.12,3.413,8.533,8.533,8.533h170.667     c5.12,0,8.533-3.413,8.533-8.533V357.4C476.867,352.28,473.453,348.867,468.333,348.867z M459.8,451.267H306.2v-85.333h153.6     V451.267z" fill="#cccccc"/>
		</g>
	</g>
</g>
<g>
</g>
<g>
</g>
<g>
</g>
<g>
</g>
<g>
</g>
<g>
</g>
<g>
</g>
<g>
</g>
<g>
</g>
<g>
</g>
<g>
</g>
<g>
</g>
<g>
</g>
<g>
</g>
<g>
</g>
</svg>
