<svg width="512" height="512" xmlns="http://www.w3.org/2000/svg">
 <defs>
  <style type="text/css">
   <![CDATA[
    .fil1 {fill:none}
    .fil0 {fill:#c2c2c2}
   ]]>
  </style>
 </defs>
 <g>
  <title>background</title>
  <rect fill="none" id="canvas_background" height="514" width="514" y="-1" x="-1"/>
 </g>
 <g>
  <title>Layer 1</title>
  <g stroke="null" id="Layer_x0020_1">
   <path stroke="null" id="svg_1" d="m349.512938,356.989136l20.229593,-226.611765l0.265401,-2.972419l-2.981126,0l-222.054011,0l-2.980724,0l0.264808,2.972419l20.208328,226.648602l0.168496,1.889643l1.820439,0.505291l90.684222,25.174136l1.454169,0l90.931365,-25.211308l1.820037,-0.504698l0.168891,-1.890245l0.000109,0.000345zm-93.326723,-179.443883l66.264911,0l-1.994662,23.189119l-65.371444,29.060785l1.101158,5.228523l61.349001,0l-7.061805,80.917871l-54.50852,15.113038l-54.490771,-15.087537l-3.460493,-38.753127l22.43714,0l1.797885,19.648404l0.174429,1.904478l1.846342,0.490459l31.221615,8.294877l1.422131,-0.010679l30.862119,-8.578271l1.838238,-0.511224l0.161377,-1.894599l3.085542,-36.289897l0.251755,-2.961736l-2.978346,0l-33.94756,0l-60.015833,0l-2.042516,-23.289584l63.12773,-27.01867l4.480965,-1.920301l-1.069319,-5.249889l-4.480965,0l-64.935595,0l-1.977466,-22.282089l66.630938,0l0.282013,0l0.000007,0.000049z" class="fil0"/>
  </g>
 </g>
</svg>