<svg width="512" height="512" xmlns="http://www.w3.org/2000/svg">

 <g>
  <title>background</title>
  <rect fill="none" id="canvas_background" height="514" width="514" y="-1" x="-1"/>
 </g>
 <g>
  <title>Layer 1</title>
  <g stroke="null" id="svg_4">
   <rect stroke="null" x="117" y="117" id="svg_1" fill="#c2c2c2" height="278.000016" width="278.000016"/>
   <path stroke="null" fill="#ffffff" id="svg_2" d="m210.549212,336.311124c4.853969,7.501588 8.825397,13.679366 17.650795,13.679366c8.384127,0 14.120636,-3.530159 14.120636,-16.326985l0,-88.695243l26.034922,0l0,89.136513c0,26.917462 -15.885715,39.273018 -38.831748,39.273018c-20.739684,0 -33.09524,-11.031747 -39.273018,-23.828573"/>
   <path stroke="null" fill="#ffffff" id="svg_3" d="m303.657154,334.104775c5.736508,9.266667 12.796826,15.885715 25.593652,15.885715c11.031747,0 17.650795,-5.295238 17.650795,-12.796826c0,-8.825397 -7.060318,-11.914286 -18.974604,-17.209525l-6.619048,-2.647619c-18.974604,-7.942858 -31.330161,-18.092065 -31.330161,-39.273018c0,-19.415874 15.003175,-34.41905 38.390478,-34.41905c16.768255,0 28.682541,5.736508 37.066669,20.739684l-20.298414,13.238096c-4.412699,-7.942858 -9.266667,-11.031747 -16.768255,-11.031747c-7.501588,0 -12.355556,4.853969 -12.355556,11.031747c0,7.942858 4.853969,11.031747 15.885715,15.885715l6.619048,2.647619c22.063493,9.707937 34.86032,19.415874 34.86032,41.038098c0,23.387303 -18.533334,36.184129 -43.244447,36.184129c-24.269843,0 -40.155558,-11.473017 -47.657146,-26.476192"/>
  </g>
 </g>
</svg>