<svg width="512" height="512" xmlns="http://www.w3.org/2000/svg">

 <g>
  <title>background</title>
  <rect fill="none" id="canvas_background" height="514" width="514" y="-1" x="-1"/>
 </g>
 <g>
  <title>Layer 1</title>
  <g stroke="null" id="svg_9">
   <path stroke="null" id="svg_1" fill="#c2c2c2" d="m217.274981,336.662545c0,0 -11.276396,6.557617 8.025028,8.776628c23.383133,2.667586 35.333981,2.285025 61.102353,-2.592028c0,0 6.774746,4.247936 16.236166,7.9272c-57.765882,24.757488 -130.735572,-1.434006 -85.363546,-14.1118"/>
   <path stroke="null" id="svg_2" fill="#c2c2c2" d="m210.216297,304.355645c0,0 -12.647571,9.362002 6.66817,11.359908c24.978594,2.576917 44.704732,2.787683 78.838539,-3.785045c0,0 4.721166,4.786384 12.144913,7.403863c-69.842395,20.42286 -147.63426,1.610573 -97.651621,-14.978726"/>
   <path stroke="null" id="svg_3" fill="#c2c2c2" d="m269.723189,249.552422c14.233488,16.387281 -3.739711,31.133766 -3.739711,31.133766s36.141256,-18.657195 19.543209,-42.020444c-15.502063,-21.787671 -27.390079,-32.613107 36.966824,-69.937837c0,0 -101.01911,25.229923 -52.770322,80.824514"/>
   <path stroke="null" id="svg_4" fill="#c2c2c2" d="m346.123201,360.558675c0,0 8.344756,6.875755 -9.190207,12.19502c-33.343234,10.100877 -138.778097,13.151024 -168.06746,0.402444c-10.528772,-4.58039 9.215658,-10.936784 15.426505,-12.270577c6.477287,-1.404579 10.178821,-1.14291 10.178821,-1.14291c-11.709064,-8.248519 -75.682611,16.196398 -32.495396,23.197022c117.777817,19.100202 214.697721,-8.600857 184.147738,-22.380998"/>
   <path stroke="null" id="svg_5" fill="#c2c2c2" d="m222.697641,270.881975c0,0 -53.630885,12.73824 -18.992035,17.363964c14.625593,1.958139 43.781337,1.515132 70.939175,-0.760349c22.194888,-1.872241 44.48124,-5.852941 44.48124,-5.852941s-7.826191,3.351582 -13.48825,7.217753c-54.461225,14.323362 -159.670211,7.659964 -129.381896,-6.991079c25.61487,-12.381926 46.441765,-10.977347 46.441765,-10.977347"/>
   <path stroke="null" id="svg_6" fill="#c2c2c2" d="m318.904916,324.658408c55.36235,-28.768411 29.764978,-56.414591 11.898356,-52.689992c-4.379168,0.911465 -6.331739,1.701242 -6.331739,1.701242s1.625684,-2.546694 4.73071,-3.649041c35.345912,-12.426465 62.529201,36.650277 -11.410014,56.087705c0,0.000795 0.856586,-0.765122 1.112687,-1.449913"/>
   <path stroke="null" id="svg_7" fill="#c2c2c2" d="m285.526687,108.458281c0,0 30.660536,30.670876 -29.080186,77.834018c-47.905994,37.832954 -10.924059,59.404292 -0.019884,84.050432c-27.963523,-25.229923 -48.485005,-47.439922 -34.717589,-68.11093c20.207322,-30.343194 76.18845,-45.054684 63.817659,-93.77352"/>
   <path stroke="null" id="svg_8" fill="#c2c2c2" d="m228.137798,402.614114c53.140953,3.401689 134.744905,-1.887353 136.677592,-27.032174c0,0 -3.715055,9.532206 -43.918136,17.102296c-45.356915,8.535639 -101.298276,7.539072 -134.477669,2.068691c0.000795,-0.000795 6.792243,5.621496 41.718213,7.861187"/>
  </g>
 </g>
</svg>