<svg width="512" height="512" xmlns="http://www.w3.org/2000/svg">

 <g>
  <title>background</title>
  <rect fill="none" id="canvas_background" height="514" width="514" y="-1" x="-1"/>
 </g>
 <g>
  <title>Layer 1</title>
  <g id="svg_1" fill-rule="evenodd" fill="#c2c2c2">
   <path id="svg_2" d="m398.6,291.5l0,18.1l32.7,0c6.7,0 18.2,-4.9 18.6,-18.6l0,-7c0,-11.7 -9.6,-18.6 -18.6,-18.6l-16.3,0l0,-8.4l32.3,0l0,-18.2l-31,0c-8,0 -18.7,6.6 -18.7,18.9l0,6.3c0,12.3 10.6,18.6 18.7,18.6c22.5,0.1 -5.4,0 15.4,0l0,8.8m-208.3,-4.3c0,0 17.5,-1.5 17.5,-24.1c0,-22.6 -21.2,-24.7 -21.2,-24.7l-38.2,0l0,71.3l19.2,0l0,-17.2l16.6,17.2l28.4,0l-22.3,-22.5zm-7.4,-14.6l-15.3,0l0,-16.3l15.4,0c0,0 4.3,1.6 4.3,8.1c0,6.5 -4.4,8.2 -4.4,8.2zm72.3,-33.7l-19.5,0c-13.9,0 -18.6,12.6 -18.6,18.6l0,52.2l19.5,0l0,-12.5l18.3,0l0,12.5l18.9,0l0,-52.2c0,-15.2 -13.8,-18.6 -18.6,-18.6zm-0.3,38.1l-18.4,0l0,-17.3c0,0 0,-3.9 6.1,-3.9l6.7,0c5.4,0 5.5,3.9 5.5,3.9l0,17.3l0.1,0z"/>
   <rect id="svg_3" y="238.8" x="315.8" height="70.8" width="20.3"/>
   <polygon id="svg_4" points="364.6000061035156,291.3000030517578 364.6000061035156,238.8000030517578 344.3999938964844,238.8000030517578 344.3999938964844,291.3000030517578 344.3999938964844,309.6000061035156 364.6000061035156,309.6000061035156 391.8999938964844,309.6000061035156 391.8999938964844,291.3000030517578 "/>
   <path id="svg_5" d="m61,309.6l79,0c0,0 -15.1,-68.9 34.9,-96.8c10.9,-5.3 45.6,-25.1 102.4,16.9c1.8,-1.5 3.5,-2.7 3.5,-2.7c0,0 -52,-51.9 -109.9,-46.1c-29.1,2.6 -64.9,29.1 -85.9,64.1c-21,35 -24,64.6 -24,64.6z"/>
   <path id="svg_6" d="m61,309.6l79,0c0,0 -15.1,-68.9 34.9,-96.8c10.9,-5.3 45.6,-25.1 102.4,16.9c1.8,-1.5 3.5,-2.7 3.5,-2.7c0,0 -52,-51.9 -109.9,-46.1c-29.1,2.6 -64.9,29.1 -85.9,64.1c-21,35 -24,64.6 -24,64.6z"/>
   <path id="svg_7" d="m61,309.6l79,0c0,0 -15.1,-68.9 34.9,-96.8c10.9,-5.3 45.6,-25.1 102.4,16.9c1.8,-1.5 3.5,-2.7 3.5,-2.7c0,0 -52,-51.9 -109.9,-46.1c-29.2,2.6 -65,29.1 -86,64.1c-21,35 -23.9,64.6 -23.9,64.6zm164.6,-123.1l0.4,-6.7c-0.9,-0.5 -3.4,-1.7 -9.7,-3.5l-0.4,6.6c3.3,1.1 6.5,2.3 9.7,3.6z"/>
   <path id="svg_8" d="m216.1,207.7l-0.4,6.3c3.3,0.1 6.6,0.5 9.9,1.2l0.4,-6.2c-3.4,-0.7 -6.7,-1.1 -9.9,-1.3zm-37,-31.2l1,0l-2,-6.1c-3.1,0 -6.3,0.2 -9.6,0.6l1.9,5.9c2.9,-0.3 5.8,-0.4 8.7,-0.4zm4.8,36.8l2.3,6.9c2.9,-1.4 5.8,-2.6 8.7,-3.5l-2.2,-6.6c-3.4,1 -6.3,2.1 -8.8,3.2zm-45.4,-26.3l-4.5,-6.9c-2.5,1.3 -5.1,2.7 -7.8,4.3l4.6,7c2.6,-1.6 5.1,-3.1 7.7,-4.4zm20.5,45l4.8,7.2c1.7,-2.5 3.7,-4.8 5.9,-7.1l-4.5,-6.8c-2.3,2.1 -4.4,4.4 -6.2,6.7zm-14.5,32.2l8.1,6.4c0.4,-3.9 1.1,-7.8 2.1,-11.7l-7.2,-5.7c-1.3,3.7 -2.2,7.4 -3,11zm-43.8,-47.5l-7.1,-6.2c-2.6,2.5 -5.1,5 -7.4,7.5l7.7,6.6c2.1,-2.7 4.4,-5.4 6.8,-7.9zm-30.2,44.7l-11.5,-4.2c-1.9,4.3 -4,9.3 -5,12l11.5,4.2c1.3,-3.4 3.4,-8.3 5,-12zm72.5,28.2c0.2,5.3 0.7,9.6 1.2,12.6l12,4.3c-0.9,-3.9 -1.8,-8.3 -2.4,-13l-10.8,-3.9z"/>
  </g>
 </g>
</svg>