<svg width="512" height="512" xmlns="http://www.w3.org/2000/svg">
 <g>
  <title>background</title>
  <rect x="-1" y="-1" width="514" height="514" id="canvas_background" fill="none"/>
 </g>

 <g>
  <title>Layer 1</title>
  <path stroke="#c2c2c2" fill="none" stroke-width="7" stroke-miterlimit="10" d="m255.999994,229.958362c14.381172,0 26.041653,11.659163 26.041653,26.041653s-11.660481,26.041653 -26.041653,26.041653s-26.041653,-11.660481 -26.041653,-26.041653s11.660481,-26.041653 26.041653,-26.041653zm0,-26.041653c75.508402,0 136.719994,23.318325 136.719994,52.083305s-61.211592,52.083305 -136.719994,52.083305s-136.719994,-23.318325 -136.719994,-52.083305s61.211592,-52.083305 136.719994,-52.083305zm45.10758,78.124958c-37.75486,65.391491 -88.554273,106.744939 -113.467577,92.361131s-14.499807,-79.052945 23.255053,-144.444436s88.554273,-106.744939 113.464941,-92.361131s14.499807,79.052945 -23.252417,144.444436zm0,-52.083305c37.752224,65.391491 48.165721,130.063265 23.252417,144.444436s-75.711399,-26.96964 -113.467577,-92.361131s-48.165721,-130.063265 -23.252417,-144.444436s75.711399,26.96964 113.467577,92.361131z" id="svg_1"/>
 </g>
</svg>