<?xml version="1.0" standalone="no"?>
<!DOCTYPE svg PUBLIC "-//W3C//DTD SVG 20010904//EN"
 "http://www.w3.org/TR/2001/REC-SVG-20010904/DTD/svg10.dtd">
<svg version="1.0" xmlns="http://www.w3.org/2000/svg"
 width="700.000000pt" height="700.000000pt" viewBox="0 0 700.000000 700.000000"
 preserveAspectRatio="xMidYMid meet">
<metadata>
Created by potrace 1.11, written by Peter Selinger 2001-2013
</metadata>
<g transform="translate(0.000000,700.000000) scale(0.100000,-0.100000)"
fill="#000000" stroke="none">
<path d="M875 4990 l-875 -875 1750 -1750 1750 -1750 1750 1750 1750 1750
-875 875 -875 875 -1750 0 -1750 0 -875 -875z m4591 -216 c360 -360 654 -656
654 -658 0 -3 -589 -594 -1310 -1315 l-1310 -1310 -1310 1310 c-720 721 -1310
1312 -1310 1315 0 2 294 298 654 658 l654 654 1312 0 1312 0 654 -654z"/>
<path d="M3500 3458 l0 -1532 1090 1090 c599 599 1090 1094 1090 1099 0 6
-195 205 -433 443 l-433 432 -657 0 -657 0 0 -1532z"/>
</g>
</svg>
